<?xml version="1.0" encoding="utf-8"?>
<!-- Generator: Adobe Illustrator 18.0.0, SVG Export Plug-In . SVG Version: 6.00 Build 0)  -->
<!DOCTYPE svg PUBLIC "-//W3C//DTD SVG 1.1//EN" "http://www.w3.org/Graphics/SVG/1.1/DTD/svg11.dtd">
<svg version="1.1" xmlns="http://www.w3.org/2000/svg" xmlns:xlink="http://www.w3.org/1999/xlink" x="0px" y="0px"
	 viewBox="0 0 500 200" enable-background="new 0 0 500 200" xml:space="preserve">
<g id="backup_bridge">
</g>
<g id="Layer_2">
</g>
<g id="Sea_STuff">
</g>
<g id="Layer_4">
</g>
<g id="Layer_3">
</g>
<g id="bridge">
	<g>
		<g>
			<path fill="#AABDCA" d="M209.057,148.72h-0.008c-0.01-1.706-0.696-3.084-1.542-3.084s-1.532,1.378-1.542,3.084h-0.002
				L205.312,200h4.396L209.057,148.72z"/>
			<path fill="#AABDCA" d="M119.937,148.72h-0.008c-0.01-1.706-0.696-3.084-1.542-3.084s-1.532,1.378-1.542,3.084h-0.002
				L116.192,200h4.396L119.937,148.72z"/>
			<path fill="none" stroke="#AABDCA" stroke-width="3" stroke-miterlimit="10" d="M207.295,150.12
				c-9.189,15.373-25.637,26.931-44.399,26.931c-18.689,0-35.083-11.479-44.292-26.753"/>
			<path fill="none" stroke="#AABDCA" stroke-width="3" stroke-miterlimit="10" d="M118.604,150.12
				c-9.189,15.373-25.637,26.931-44.399,26.931"/>
			<path fill="none" stroke="#AABDCA" stroke-width="3" stroke-miterlimit="10" d="M252.312,177.052
				c-18.689,0-35.083-11.479-44.292-26.753"/>
			
				<line fill="none" stroke="#AABDCA" stroke-width="3" stroke-miterlimit="10" x1="252.312" y1="177.052" x2="118.39" y2="177.052"/>
			
				<line fill="none" stroke="#AABDCA" stroke-width="3" stroke-miterlimit="10" x1="205.353" y1="177.052" x2="74.206" y2="177.052"/>
		</g>
		<g>
			<path fill="#AABDCA" d="M382.539,148.72h-0.008c-0.01-1.706-0.696-3.084-1.542-3.084c-0.847,0-1.532,1.378-1.542,3.084h-0.002
				L378.794,200h4.396L382.539,148.72z"/>
			<path fill="#AABDCA" d="M293.419,148.72h-0.008c-0.01-1.706-0.696-3.084-1.542-3.084c-0.847,0-1.532,1.378-1.542,3.084h-0.002
				L289.674,200h4.396L293.419,148.72z"/>
			<path fill="none" stroke="#AABDCA" stroke-width="3" stroke-miterlimit="10" d="M380.777,150.12
				c-9.189,15.373-25.637,26.931-44.399,26.931c-18.689,0-35.083-11.479-44.292-26.753"/>
			<path fill="none" stroke="#AABDCA" stroke-width="3" stroke-miterlimit="10" d="M292.086,150.12
				c-9.189,15.373-25.637,26.931-44.399,26.931"/>
			<path fill="none" stroke="#AABDCA" stroke-width="3" stroke-miterlimit="10" d="M425.794,177.052
				c-18.689,0-35.083-11.479-44.292-26.753"/>
			
				<line fill="none" stroke="#AABDCA" stroke-width="3" stroke-miterlimit="10" x1="425.794" y1="177.052" x2="291.872" y2="177.052"/>
			
				<line fill="none" stroke="#AABDCA" stroke-width="3" stroke-miterlimit="10" x1="378.834" y1="177.052" x2="247.688" y2="177.052"/>
		</g>
	</g>
</g>
</svg>
