<?xml version="1.0" encoding="utf-8"?>
<!-- Generator: Adobe Illustrator 18.0.0, SVG Export Plug-In . SVG Version: 6.00 Build 0)  -->
<!DOCTYPE svg PUBLIC "-//W3C//DTD SVG 1.1//EN" "http://www.w3.org/Graphics/SVG/1.1/DTD/svg11.dtd">
<svg version="1.1" xmlns="http://www.w3.org/2000/svg" xmlns:xlink="http://www.w3.org/1999/xlink" x="0px" y="0px"
	 viewBox="0 0 100 100" enable-background="new 0 0 100 100" xml:space="preserve">
<g id="backup_bridge">
</g>
<g id="Layer_2">
</g>
<g id="Sea_STuff">
</g>
<g id="Layer_4">
	<path fill-rule="evenodd" clip-rule="evenodd" fill="#066B7C" d="M56.902,65.542c2.887-12.93,25.06-25.738,35.922-33.476h0
		c0.407-0.289,0.784-0.561,1.136-0.822c0.711-0.523,1.359-1.02,1.933-1.488l0.349-0.487c0.447-0.489,0.829-1.016,1.169-1.628
		l0.507-0.706l0.607-2.124c-0.202,0.109-0.404,0.217-0.608,0.324l-0.04,0.021c-0.621,0.327-1.252,0.646-1.891,0.959l-0.018,0.009
		c-0.213,0.104-0.427,0.208-0.642,0.31l-0.011,0.005c-0.205,0.098-0.41,0.195-0.616,0.291l-0.064,0.03
		c-0.199,0.093-0.399,0.185-0.599,0.277l-0.05,0.023c-0.202,0.092-0.405,0.184-0.609,0.275l-0.038,0.017l-0.04,0.017
		c-0.202,0.09-0.404,0.18-0.607,0.268l-0.057,0.026c-0.215,0.094-0.43,0.187-0.646,0.279l-0.023,0.01
		c-0.432,0.185-0.868,0.369-1.307,0.55l-0.066,0.027c-0.211,0.087-0.423,0.174-0.635,0.259L89.93,28.8l-0.02,0.008l-0.628,0.253
		l-0.083,0.033l-0.616,0.242l-0.047,0.019l-0.035,0.013l-0.587,0.228l-0.08,0.031l-0.036,0.015l-0.586,0.224l-0.164,0.062
		l-0.585,0.221l-0.025,0.009l-0.017,0.006l-0.086,0.032l-0.491,0.183l-0.133,0.049l-0.062,0.023l-0.567,0.208l-0.085,0.031
		l-0.048,0.017l-0.03,0.011L84.5,30.869l-0.423,0.152l-0.028,0.01l-0.3,0.108l-0.07,0.025l-0.231,0.082l-0.301,0.107l-0.085,0.03
		l-0.398,0.14l-0.121,0.043l-0.302,0.106l-0.303,0.105l-0.303,0.106l-0.242,0.085l-0.061,0.02l-0.304,0.105l-0.912,0.313h0
		c-9.041,3.089-18.368,5.893-26.267,9.761c-5.24,8.703-5.835,9.726-11.549,13.884c-3.348-5.061-6.206-8.858-17.499-12.969
		c-6.452-2.349-14.56-9.017-20.413-12.851c-0.914-0.521-1.827-1.042-2.74-1.563c-1.715,11.384,9.771,12.924,18.438,19.781
		c4.084,3.061,8.768,6.23,8.571,11.582c-1.782,0.811-3.367,2.011-4.668,3.681l-0.003,0.004l-0.003,0.004l-0.003,0.004l-0.003,0.004
		l-0.003,0.004l-0.004,0.004l-0.002,0.004l-0.003,0.004c-0.096,0.01-0.19,0.018-0.283,0.025l0,0
		c-0.094,0.007-0.186,0.013-0.277,0.017l0,0l-0.091,0.004v0l-0.09,0.004l-0.09,0.003l0,0l-0.089,0.003l-0.089,0.002l0,0
		l-0.088,0.002l0,0l-0.087,0.002l0,0l-0.086,0.002l-0.086,0.002v0l-0.255,0.004h0l-0.167,0.003v0l-0.083,0.002l0,0l-0.082,0.002l0,0
		l-0.082,0.003h0l-0.081,0.003l-0.081,0.004l-0.08,0.004l-0.08,0.004v0.001l-0.079,0.005h0l-0.079,0.006l-0.078,0.007l0,0
		l-0.078,0.009l-0.077,0.009l-0.078,0.011v0l-0.077,0.012l-0.077,0.012l-0.076,0.014l-0.076,0.015l-0.076,0.016l-0.075,0.018
		l-0.075,0.019l-0.074,0.021l-0.074,0.023l-0.074,0.025l-0.074,0.025l-0.073,0.028l-0.073,0.03l-0.072,0.031l-0.073,0.034
		l-0.072,0.036l-0.072,0.038l-0.072,0.041l-0.072,0.043l-0.071,0.045l-0.071,0.047l-0.071,0.05l-0.071,0.053l-0.071,0.055
		l-0.07,0.057l-0.07,0.061l-0.07,0.063l-0.07,0.066l-0.07,0.069l-0.07,0.072l-0.07,0.075c-1.475,1.812-0.563,1.437,0.096,1.398
		c3.935-1.728,2.298-0.481,6.588-0.315l0.017,0.007l0.017,0.008c11.868,5.215,11.922,7.095,30.692,3.858
		c1.85,0.701,2.968,4.454,4.818,5.156c3.18-0.733,4.196-0.943,4.838-1.046h0.001l0.063-0.011l0.015-0.002l0.047-0.008l0.029-0.004
		l0.032-0.005l0.04-0.006l0.019-0.003l0.053-0.007l0.005,0l0.058-0.008l0.008-0.001l0.049-0.006l0.021-0.003l0.037-0.005
		l0.034-0.004l0.024-0.003l0.049-0.007l0.011-0.001l0.062-0.008l0.002,0l0.062-0.008l0.017-0.002l0.05-0.007l0.033-0.005
		l0.036-0.005l0.051-0.007l0.021-0.002l0.072-0.011l0.005-0.001l0.08-0.012l0.013-0.002l0.072-0.011l0.034-0.005l0.057-0.009
		l0.057-0.009l0.248-0.039l0.006-0.001l0.109-0.018l0.033-0.006l0.318-0.053l0.038-0.006l0.138-0.024l0.007-0.001l0.155-0.028
		l0.028-0.005l0.204-0.036l0.106-0.019l0.113-0.021l0.07-0.013l0.165-0.031l0.03-0.006l0.205-0.038l0.016-0.003l0.201-0.038
		l0.067-0.013l0.008-0.002l0.279-0.053l0.116-0.022l0.189-0.036l0.612-0.12l0.057-0.011l0.237-0.047l0.129-0.026l0.179-0.035
		l0.208-0.042l0.115-0.023l0.296-0.06l0.043-0.009L72.362,73l0.036-0.008l0.334-0.068l0.124-0.025l0.263-0.053l0.219-0.045
		l0.465-0.095l0.044-0.009l0.096-0.02l0.438-0.09L74.1,72.469l-0.277-0.114l-0.273-0.11l0,0l-0.269-0.106l-0.264-0.102l-0.261-0.098
		l0,0l-0.257-0.095l0,0l-0.254-0.091l0,0l-0.251-0.088l-0.248-0.085l-0.244-0.082l-0.242-0.079l-0.239-0.078l-0.237-0.074v0
		l-0.234-0.072h0l-0.232-0.071l-0.23-0.068l-0.228-0.067l-0.227-0.066l-0.225-0.064l0,0l-0.223-0.063l0,0l-0.222-0.062L68.74,70.67
		l-0.22-0.06l-0.219-0.06l0,0l-0.218-0.06v0l-0.217-0.06l0,0l-0.217-0.059l-0.217-0.06l0,0l-0.217-0.06l0,0l-0.217-0.061
		l-0.435-0.123l0,0l-0.436-0.127l-0.219-0.065v0l-0.221-0.068v0l-0.221-0.069h0l-0.223-0.07l-0.224-0.073l-0.225-0.075h0
		l-0.227-0.077l0,0c-0.228-0.079-0.459-0.161-0.694-0.248v0l-0.236-0.088l-0.238-0.092v0l-0.241-0.095v0l-0.244-0.098l0,0
		l-0.246-0.102c-0.248-0.104-0.5-0.214-0.758-0.33l0,0l-0.26-0.119l0,0c-0.174-0.081-0.351-0.164-0.53-0.251v0l-0.271-0.132
		l-0.275-0.138l-0.28-0.143l0,0l-0.283-0.149l-0.289-0.153l0,0l-0.293-0.16c-0.098-0.054-0.198-0.109-0.298-0.165l-0.303-0.171
		c-0.112-0.079-0.226-0.157-0.342-0.237l-0.029-0.019l-0.029-0.02l-0.029-0.02l-0.029-0.02l-0.236-0.158l-0.03-0.02l-0.03-0.02
		l-0.089-0.059l-0.03-0.02l-0.03-0.019l-0.03-0.02l-0.03-0.02l-0.03-0.02l-0.03-0.02l-0.03-0.02l-0.03-0.02l-0.276-0.178
		l-0.031-0.019l-0.031-0.02l-0.031-0.02l-0.032-0.019C57.198,65.727,57.051,65.635,56.902,65.542z"/>
</g>
<g id="Layer_3">
</g>
<g id="bridge">
</g>
</svg>
