<?xml version="1.0" encoding="utf-8"?>
<!-- Generator: Adobe Illustrator 18.0.0, SVG Export Plug-In . SVG Version: 6.00 Build 0)  -->
<!DOCTYPE svg PUBLIC "-//W3C//DTD SVG 1.1//EN" "http://www.w3.org/Graphics/SVG/1.1/DTD/svg11.dtd">
<svg version="1.1" xmlns="http://www.w3.org/2000/svg" xmlns:xlink="http://www.w3.org/1999/xlink" x="0px" y="0px"
	 viewBox="0 0 250 250" enable-background="new 0 0 250 250" xml:space="preserve">
<g id="backup_bridge">
</g>
<g id="Layer_2">
</g>
<g id="Sea_STuff">
</g>
<g id="Layer_4">
</g>
<g id="Layer_3">
</g>
<g id="bridge">
	<path fill="#F8F6ED" d="M176.783,211.74c0.758,0-2.858,5.576-10.686,6.953c-18.366,3.231-54.742,7.488-75.04,7.488
		c-18.193,0-25.898-12.144-19.107-12.144C71.95,214.037,174.246,211.74,176.783,211.74z"/>
	<g>
		<g>
			<defs>
				<path id="SVGID_42_" d="M117.504,14.489c0,0-45,151.667-22.333,198.667c22.333-34.333,83-70,85.333-70
					S117.504,14.489,117.504,14.489z"/>
			</defs>
			<clipPath id="SVGID_1_">
				<use xlink:href="#SVGID_42_"  overflow="visible"/>
			</clipPath>
			<g clip-path="url(#SVGID_1_)">
				<path fill="#51A8CC" d="M117.504,13.496c0,0-45,151.667-22.333,198.667c22.333-34.333,83-70,85.333-70
					S117.504,13.496,117.504,13.496z"/>
				<g>
					
						<image overflow="visible" opacity="0.75" width="631" height="531" xlink:href="ECAE0BAC97D8F6D7.png"  transform="matrix(0.24 0 0 0.24 64.1732 111.8221)">
					</image>
					<g>
						<path fill="#F8F6ED" d="M193.51,149.822L84.843,224.155c0,0-23.894-24.154-6.056-43.434s102.05-53.899,102.05-53.899
							L193.51,149.822z"/>
					</g>
				</g>
				<path fill="#F8F6ED" d="M160.037,8.419c0,0-17.664,24.25-38.455,31.595c-25.144,8.884-54.795,2.405-54.795,2.405l-17.869,8.145
					L151.251-13.77L160.037,8.419z"/>
				<path fill="#F092BD" d="M196.17,153.822L87.504,228.155c0,0-11.074-23.604-7.52-36.372
					c3.554-12.769,89.082-60.928,102.128-62.717C193.47,127.509,196.17,153.822,196.17,153.822z"/>
				<path fill="#FBBF7F" d="M161.177,13.822c0,0-28.64,18.096-40.89,22.346S47.676,48.537,47.676,48.537l-4.166,2.619
					l102.333-64.333L161.177,13.822z"/>
			</g>
		</g>
		<path fill="none" stroke="#0A90B4" stroke-width="5" stroke-linecap="round" stroke-linejoin="round" stroke-miterlimit="10" d="
			M106.754,138.489c0,0,4.926-49.704,13.283-56.86c3.301-2.827,4.926,28.454,4.926,28.454s12.829-43.261,17.411-44.678"/>
		<path fill="none" stroke="#F08CBA" stroke-width="5" stroke-linecap="round" stroke-linejoin="round" stroke-miterlimit="10" d="
			M106.754,135.267c0,0,4.926-49.704,13.283-56.86c3.301-2.827,4.926,28.454,4.926,28.454s12.829-43.261,17.411-44.678"/>
		<g>
			<path fill="#0A90B4" d="M118.069,14.654c0,0-0.8,3.051-2.107,8.423c-1.322,5.365-3.213,13.03-5.288,22.27
				c-1.018,4.623-2.121,9.631-3.288,14.929c-1.155,5.298-2.302,10.9-3.458,16.699c-1.177,5.795-2.31,11.797-3.418,17.902
				c-1.071,6.111-2.149,12.319-3.119,18.542c-0.958,6.224-1.86,12.455-2.59,18.602c-0.191,1.536-0.38,3.066-0.569,4.588
				c-0.164,1.524-0.327,3.04-0.489,4.548c-0.346,3.013-0.605,5.994-0.849,8.927c-0.506,5.864-0.81,11.54-0.97,16.916
				c-0.107,2.69-0.099,5.298-0.153,7.827c-0.04,1.265,0.01,2.502,0.031,3.719c0.008,1.217,0.017,2.412,0.025,3.582
				c0.131,4.672,0.329,8.947,0.69,12.718c0.094,1.903,0.412,3.634,0.591,5.268c0.104,0.814,0.204,1.595,0.299,2.342
				c0.139,0.736,0.271,1.438,0.396,2.104c0.267,1.33,0.448,2.543,0.677,3.575c0.271,1.022,0.5,1.892,0.687,2.597
				c0.356,1.431,0.546,2.194,0.546,2.194l0.015,0.062c0.079,0.315-0.113,0.634-0.429,0.712c-0.275,0.068-0.553-0.069-0.671-0.315
				c0,0-0.349-0.722-1.003-2.077c-0.319-0.688-0.712-1.536-1.174-2.533c-0.427-1.011-0.792-2.21-1.253-3.547
				c-0.226-0.671-0.464-1.378-0.714-2.119c-0.223-0.747-0.387-1.542-0.594-2.366c-0.199-0.827-0.407-1.687-0.622-2.579
				c-0.23-0.893-0.428-1.822-0.564-2.79c-0.288-1.933-0.707-3.991-0.94-6.17c-0.214-2.179-0.48-4.479-0.62-6.875
				c-0.314-4.796-0.35-9.996-0.208-15.478c0.188-5.48,0.524-11.246,1.063-17.186c0.261-2.971,0.538-5.99,0.9-9.034
				c0.171-1.523,0.343-3.056,0.516-4.597c0.201-1.536,0.403-3.08,0.606-4.629c0.822-6.198,1.817-12.466,2.869-18.721
				c0.518-3.129,1.107-6.244,1.655-9.354c0.578-3.104,1.199-6.187,1.803-9.248c1.253-6.111,2.529-12.115,3.842-17.906
				c1.319-5.79,2.665-11.369,3.985-16.648c1.297-5.284,2.626-10.254,3.87-14.836c1.247-4.581,2.42-8.771,3.481-12.479
				c1.068-3.706,1.995-6.937,2.81-9.584c1.621-5.294,2.603-8.307,2.603-8.307c0.1-0.31,0.432-0.479,0.742-0.379
				C117.978,14.04,118.146,14.355,118.069,14.654z"/>
		</g>
		<path fill="none" stroke="#0A90B4" stroke-width="5" stroke-linecap="round" stroke-linejoin="round" stroke-miterlimit="10" d="
			M131.058,139.489c0,0,5.43-40.65,15.992-45.388c7.66-3.436,15.232,7.725,0.14,19.126"/>
		<path fill="none" stroke="#F08CBA" stroke-width="5" stroke-linecap="round" stroke-linejoin="round" stroke-miterlimit="10" d="
			M130.058,136.345c0,0,5.43-40.65,15.992-45.388c7.66-3.436,15.232,7.725,0.14,19.126"/>
	</g>
</g>
</svg>
