<?xml version="1.0" encoding="utf-8"?>
<!-- Generator: Adobe Illustrator 18.0.0, SVG Export Plug-In . SVG Version: 6.00 Build 0)  -->
<!DOCTYPE svg PUBLIC "-//W3C//DTD SVG 1.1//EN" "http://www.w3.org/Graphics/SVG/1.1/DTD/svg11.dtd">
<svg version="1.1" xmlns="http://www.w3.org/2000/svg" xmlns:xlink="http://www.w3.org/1999/xlink" x="0px" y="0px"
	 viewBox="0 0 500 200" enable-background="new 0 0 500 200" xml:space="preserve">
<g id="backup_bridge">
</g>
<g id="Layer_2">
</g>
<g id="Sea_STuff">
</g>
<g id="Layer_4">
</g>
<g id="Layer_3">
</g>
<g id="bridge">
	<g>
		<path fill="#EE74AD" d="M318.283,138.72h-0.011c-0.014-1.706-1-3.084-2.218-3.084c-1.217,0-2.204,1.378-2.217,3.084h-0.003
			L312.898,200h6.322L318.283,138.72z"/>
		<path fill="#EE74AD" d="M190.132,138.72h-0.011c-0.014-1.706-1-3.084-2.218-3.084s-2.204,1.378-2.217,3.084h-0.003L184.746,200
			h6.322L190.132,138.72z"/>
		<path fill="none" stroke="#EE74AD" stroke-width="3" stroke-miterlimit="10" d="M315.749,140.12
			c-13.214,15.373-36.865,36.18-63.844,36.18c-26.874,0-50.448-20.728-63.69-36.002"/>
		<path fill="none" stroke="#EE74AD" stroke-width="3" stroke-miterlimit="10" d="M188.215,140.12
			c-13.214,15.373-36.865,36.18-63.844,36.18"/>
		<path fill="none" stroke="#EE74AD" stroke-width="3" stroke-miterlimit="10" d="M380.483,176.3
			c-26.874,0-50.448-20.728-63.69-36.002"/>
		<line fill="none" stroke="#EE74AD" stroke-width="3" stroke-miterlimit="10" x1="420.483" y1="176.3" x2="187.907" y2="176.3"/>
		<line fill="none" stroke="#EE74AD" stroke-width="3" stroke-miterlimit="10" x1="312.956" y1="176.3" x2="79.517" y2="176.3"/>
	</g>
</g>
</svg>
